HIERARCHY
ROOT Hips
{
  OFFSET 62.8532 80.5017 12.9801
  CHANNELS 6 Xposition Yposition Zposition Zrotation Xrotation Yrotation
  JOINT spine
  {
    OFFSET 0 6.84637 0.3937
    CHANNELS 3 Zrotation Xrotation Yrotation
    JOINT spine1
    {
      OFFSET 0 9.49621 0
      CHANNELS 3 Zrotation Xrotation Yrotation
      JOINT spine2
      {
        OFFSET 0 9.09909 0
        CHANNELS 3 Zrotation Xrotation Yrotation
        JOINT Neck
        {
          OFFSET 0 23.3612 1.11378
          CHANNELS 3 Zrotation Xrotation Yrotation
          JOINT Head
          {
            OFFSET 0 7.05802 0
            CHANNELS 3 Zrotation Xrotation Yrotation
            End Site
            {
              OFFSET 0 17.0844 -5.63419
            }
          }
        }
        JOINT RightShoulder
        {
          OFFSET -3.83136 9.82631 -0.533491
          CHANNELS 3 Zrotation Xrotation Yrotation
          JOINT RightArm
          {
            OFFSET 0 12.8881 0
            CHANNELS 3 Zrotation Xrotation Yrotation
            JOINT RightArmRoll
            {
              OFFSET 0 6.50617 0
              CHANNELS 3 Zrotation Xrotation Yrotation
              JOINT RightForeArm
              {
                OFFSET 0 18.9501 0
                CHANNELS 3 Zrotation Xrotation Yrotation
                JOINT RightForeArmRoll
                {
                  OFFSET 0 7.30092 0
                  CHANNELS 3 Zrotation Xrotation Yrotation
                  JOINT RightHand
                  {
                    OFFSET 0 14.6514 0
                    CHANNELS 3 Zrotation Xrotation Yrotation
                    End Site
                    {
                      OFFSET 0 0 0
                    }
                  }
                }
              }
            }
          }
        }
        JOINT LeftShoulder
        {
          OFFSET 3.83136 9.82631 -0.533491
          CHANNELS 3 Zrotation Xrotation Yrotation
          JOINT LeftArm
          {
            OFFSET 0 12.8881 0
            CHANNELS 3 Zrotation Xrotation Yrotation
            JOINT LeftArmRoll
            {
              OFFSET 0 6.50616 0
              CHANNELS 3 Zrotation Xrotation Yrotation
              JOINT LeftForeArm
              {
                OFFSET 0 18.9501 0
                CHANNELS 3 Zrotation Xrotation Yrotation
                JOINT LeftForeArmRoll
                {
                  OFFSET 0 7.30092 0
                  CHANNELS 3 Zrotation Xrotation Yrotation
                  JOINT LeftHand
                  {
                    OFFSET 0 14.6514 0
                    CHANNELS 3 Zrotation Xrotation Yrotation
                    End Site
                    {
                      OFFSET 0 0 0
                    }
                  }
                }
              }
            }
          }
        }
      }
    }
  }
  JOINT RightUpLeg
  {
    OFFSET -6.06837 -1.11278 -0.933477
    CHANNELS 3 Zrotation Xrotation Yrotation
    JOINT RightUpLegRoll
    {
      OFFSET 0 17.1796 0
      CHANNELS 3 Zrotation Xrotation Yrotation
      JOINT RightLeg
      {
        OFFSET 0 -21.2743 0
        CHANNELS 3 Zrotation Xrotation Yrotation
        JOINT RightLegRoll
        {
          OFFSET 0 21.3439 0
          CHANNELS 3 Zrotation Xrotation Yrotation
          JOINT RightFoot
          {
            OFFSET 0 17.7652 0
            CHANNELS 3 Zrotation Xrotation Yrotation
            JOINT RightToeBase
            {
              OFFSET 0 14.8508 0
              CHANNELS 3 Zrotation Xrotation Yrotation
              End Site
              {
                OFFSET 0.0062947 7.19213 -0.829005
              }
            }
          }
        }
      }
    }
  }
  JOINT LeftUpLeg
  {
    OFFSET 6.06837 -1.11278 -0.933477
    CHANNELS 3 Zrotation Xrotation Yrotation
    JOINT LeftUpLegRoll
    {
      OFFSET 0 17.1797 0
      CHANNELS 3 Zrotation Xrotation Yrotation
      JOINT LeftLeg
      {
        OFFSET 0 21.2742 0
        CHANNELS 3 Zrotation Xrotation Yrotation
        JOINT LeftLegRoll
        {
          OFFSET 0 21.5412 0
          CHANNELS 3 Zrotation Xrotation Yrotation
          JOINT LeftFoot
          {
            OFFSET 0 17.5679 0
            CHANNELS 3 Zrotation Xrotation Yrotation
            JOINT LeftToeBase
            {
              OFFSET 0 14.8508 0
              CHANNELS 3 Zrotation Xrotation Yrotation
              End Site
              {
                OFFSET -0.0282102 7.19214 -0.829005
              }
            }
          }
        }
      }
    }
  }
}
MOTION
Frames: 12
Frame Time: 0.00208333
53.188 86.2864 9.50159 -1.20927 1.32252 20.0903 0.00171443 -2.8 0.566974 0.0256816 -1.5953 1.13416 0.0120975 0.0495651 1.13365 49.7621 -15.3583 25.812 -54.1899 20.5541 35.3469 73.0649 -6.10795 -4.53393 6.46133 14.6135 106.931 1.87325e-006 3.44318e-006 -2.31487e-006 139.244 74.9471 -121.075 -7.74096e-006 -5.05282e-006 -3 8.03022 -4.95096 0.697554 -1.59657 -28.1844 39.0471 -99.7805 22.8955 -26.4027 -4.13455e-006 -1.24657e-006 6.96602e-006 -3.12439 25.3598 0.544062 5.45497e-006 1.31608e-005 2.99999 -8.03021 -4.95123 -0.697608 156.719 10.213 17.3151 180 7.01522e-015 178.82 172.74 33.0377 -178.978 6.45113e-007 2.87007e-007 0.525557 -18.9544 67.8967 19.434 8.00376 29.4297 1.64344 -161.669 26.5935 -8.40247 4.54188e-006 -4.6773e-006 -1.35648 1.01141 -27.1884 1.1874 2.93381e-006 1.23006e-006 -0.261722 17.4274 65.2566 -17.4715 -8.13649 25.2327 3.48773 
53.2779 86.3013 9.5595 -1.31486 1.19346 20.5875 -0.0653811 -2.80245 0.541438 -0.109231 -1.60086 1.08853 -0.12225 0.0440116 1.09028 50.2908 -15.3604 25.7347 -54.4233 20.5996 35.3449 73.7497 -5.80719 -4.4202 5.92321 14.6441 106.726 1.87325e-006 3.44318e-006 -2.31487e-006 140.528 74.4671 -122.364 -7.74096e-006 -5.05282e-006 -3 8.03022 -4.95096 0.697554 -1.07255 -28.2641 39.5214 -100.119 22.7929 -26.3316 -4.13455e-006 -1.24657e-006 6.96602e-006 -3.11382 25.3595 0.54608 5.45497e-006 1.31608e-005 2.99999 -8.03021 -4.95123 -0.697608 156.917 9.82938 17.1227 180 7.01521e-015 178.816 172.813 32.9521 -179.001 6.45113e-007 2.87007e-007 0.523172 -18.9723 67.9175 19.4499 7.99132 29.5269 1.75566 -161.705 26.677 -8.32426 4.54188e-006 -4.6773e-006 -1.35562 1.07739 -27.224 1.20439 2.93381e-006 1.23006e-006 -0.258884 17.4404 65.2625 -17.4749 -8.13649 25.2327 3.48773 
53.4324 86.3267 9.64938 -1.41969 1.06607 21.0889 -0.131357 -2.80495 0.516906 -0.241873 -1.60657 1.0448 -0.25435 0.0383148 1.04877 50.7866 -15.378 25.6549 -54.627 20.6524 35.3302 74.4078 -5.52287 -4.31316 5.3946 14.7032 106.509 1.87325e-006 3.44318e-006 -2.31487e-006 141.724 74.0012 -123.581 -7.74096e-006 -5.05282e-006 -3 8.03022 -4.95096 0.697554 -0.580636 -28.3451 39.9819 -100.432 22.6975 -26.2597 -4.13455e-006 -1.24657e-006 6.96602e-006 -3.10736 25.351 0.548457 5.45497e-006 1.31608e-005 2.99999 -8.03021 -4.95123 -0.697608 157.117 9.44389 16.9319 180 7.0152e-015 178.812 172.882 32.8611 -179.024 6.45113e-007 2.87007e-007 0.520712 -18.9897 67.9377 19.4656 7.97896 29.62 1.86328 -161.743 26.7634 -8.24322 4.54188e-006 -4.6773e-006 -1.35457 1.14383 -27.2579 1.22148 2.93381e-006 1.23006e-006 -0.255993 17.4536 65.2689 -17.4787 -8.13649 25.2327 3.48773 
53.518 86.3331 9.70307 -1.52461 0.940498 21.5958 -0.19511 -2.80776 0.494005 -0.370014 -1.61293 1.00415 -0.381987 0.0319714 1.01027 51.2341 -15.414 25.5699 -54.7901 20.7132 35.2966 75.0256 -5.26231 -4.21559 4.88358 14.7964 106.283 1.87325e-006 3.44318e-006 -2.31487e-006 142.839 73.5542 -124.734 -7.74096e-006 -5.05282e-006 -3 8.03022 -4.95096 0.697554 -0.135813 -28.4279 40.4189 -100.71 22.6082 -26.1892 -4.13455e-006 -1.24657e-006 6.96602e-006 -3.10602 25.3336 0.551289 5.45497e-006 1.31608e-005 2.99999 -8.03021 -4.95123 -0.697608 157.319 9.05527 16.7429 180 7.01519e-015 178.808 172.947 32.7631 -179.046 6.45113e-007 2.87007e-007 0.518164 -19.0063 67.9569 19.4806 7.9667 29.7091 1.96653 -161.784 26.8535 -8.15877 4.54188e-006 -4.6773e-006 -1.35329 1.21151 -27.2903 1.23886 2.93381e-006 1.23006e-006 -0.253001 17.4671 65.276 -17.4829 -8.13649 25.2327 3.48773 
53.6549 86.3393 9.7824 -1.63048 0.816877 22.1093 -0.255536 -2.81115 0.473362 -0.491424 -1.62043 0.967733 -0.502944 0.0244782 0.97588 51.6178 -15.4711 25.4772 -54.9018 20.7827 35.2383 75.5895 -5.03279 -4.13024 4.39837 14.9291 106.049 1.87325e-006 3.44318e-006 -2.31487e-006 143.881 73.1306 -125.828 -7.74096e-006 -5.05282e-006 -3 8.03022 -4.95096 0.697554 0.246832 -28.5132 40.8231 -100.943 22.524 -26.1222 -4.13455e-006 -1.24657e-006 6.96602e-006 -3.11074 25.3069 0.55467 5.45497e-006 1.31608e-005 2.99999 -8.03021 -4.95123 -0.697608 157.523 8.66229 16.556 180 7.01518e-015 178.803 173.007 32.6563 -179.067 6.45113e-007 2.87007e-007 0.515515 -19.0217 67.9748 19.4946 7.95459 29.7942 2.06563 -161.827 26.948 -8.0703 4.54188e-006 -4.6773e-006 -1.35175 1.28121 -27.3211 1.2567 2.93381e-006 1.23006e-006 -0.24986 17.4808 65.2836 -17.4875 -8.13649 25.2327 3.48773 
53.7551 86.3593 9.84995 -1.73814 0.695348 22.6305 -0.311532 -2.81535 0.455603 -0.603876 -1.62958 0.936713 -0.615007 0.0153321 0.946742 51.9224 -15.5523 25.3742 -54.9511 20.8617 35.149 76.0862 -4.84164 -4.05987 3.94729 15.1071 105.806 1.87325e-006 3.44318e-006 -2.31487e-006 144.856 72.7351 -126.873 -7.74096e-006 -5.05282e-006 -3 8.03022 -4.95096 0.697554 0.552091 -28.6019 41.1849 -101.121 22.4439 -26.061 -4.13455e-006 -1.24657e-006 6.96602e-006 -3.12252 25.2703 0.558695 5.45497e-006 1.31608e-005 2.99999 -8.03021 -4.95123 -0.697608 157.732 8.26374 16.3715 180 7.01517e-015 178.799 173.061 32.5388 -179.086 6.45113e-007 2.87007e-007 0.512753 -19.0356 67.9908 19.5075 7.94262 29.8752 2.16081 -161.873 27.0476 -7.97723 4.54188e-006 -4.6773e-006 -1.34992 1.35373 -27.3504 1.27518 2.93381e-006 1.23006e-006 -0.24652 17.4948 65.2918 -17.4925 -8.13649 25.2327 3.48773 
53.8789 86.3854 9.92175 -1.84845 0.576056 23.1605 -0.361995 -2.82063 0.441355 -0.705139 -1.64088 0.912256 -0.715961 0.00402991 0.923978 52.1323 -15.6605 25.2584 -54.9271 20.951 35.0228 76.5021 -4.69614 -4.00723 3.53882 15.3361 105.556 1.87325e-006 3.44318e-006 -2.31487e-006 145.771 72.3721 -127.875 -7.74096e-006 -5.05282e-006 -3 8.03022 -4.95096 0.697554 0.764673 -28.6952 41.4949 -101.236 22.3667 -26.0078 -4.13455e-006 -1.24657e-006 6.96602e-006 -3.14232 25.2233 0.563456 5.45497e-006 1.31608e-005 2.99999 -8.03021 -4.95123 -0.697608 157.944 7.85841 16.1896 180 7.01515e-015 178.794 173.108 32.4089 -179.103 6.45113e-007 2.87007e-007 0.509865 -19.0477 68.0047 19.5188 7.93083 29.9522 2.25231 -161.921 27.153 -7.87893 4.54188e-006 -4.6773e-006 -1.34777 1.42984 -27.3783 1.29449 2.93381e-006 1.23006e-006 -0.242934 17.5091 65.3007 -17.498 -8.13649 25.2327 3.48773 
53.9862 86.3951 9.98815 -1.96224 0.459146 23.7004 -0.405821 -2.82724 0.431244 -0.792982 -1.65483 0.895524 -0.803588 -0.00993161 0.908714 52.2319 -15.7986 25.1272 -54.8188 21.0513 34.8534 76.8239 -4.6036 -3.97508 3.18157 15.6219 105.296 1.87325e-006 3.44318e-006 -2.31487e-006 146.633 72.0463 -128.841 -7.74096e-006 -5.05282e-006 -3 8.03022 -4.95096 0.697554 0.869199 -28.7943 41.7435 -101.277 22.2916 -25.9648 -4.13455e-006 -1.24657e-006 6.96602e-006 -3.17112 25.1652 0.569047 5.45497e-006 1.31608e-005 2.99999 -8.03021 -4.95123 -0.697608 158.162 7.44507 16.0107 180 7.01514e-015 178.788 173.145 32.2648 -179.117 6.45113e-007 2.87007e-007 0.506839 -19.0576 68.0161 19.5283 7.91923 30.0251 2.34035 -161.971 27.2649 -7.7748 4.54188e-006 -4.6773e-006 -1.34526 1.51034 -27.405 1.3148 2.93381e-006 1.23006e-006 -0.239054 17.5237 65.3102 -17.5039 -8.13649 25.2327 3.48773 
54.1207 86.4125 10.0552 -2.07805 0.34463 24.2508 -0.444429 -2.83485 0.424704 -0.870258 -1.67082 0.885497 -0.88073 -0.02593 0.899978 52.2388 -15.9717 24.9877 -54.6358 21.1671 34.6494 77.0697 -4.55992 -3.96196 2.87076 15.9623 105 1.87325e-006 3.44319e-006 -2.31487e-006 147.475 71.7475 -129.81 -7.74096e-006 -5.05282e-006 -3 8.03022 -4.95096 0.697554 0.88417 -28.9024 41.9474 -101.254 22.226 -25.9272 -4.13455e-006 -1.24657e-006 6.96602e-006 -3.20804 25.0775 0.573864 5.45497e-006 1.31608e-005 2.99999 -8.03021 -4.95123 -0.697608 158.382 7.02209 15.8357 180 7.01513e-015 178.783 173.173 32.1065 -179.13 6.45113e-007 2.87007e-007 0.503655 -19.0653 68.0247 19.5359 7.90776 30.0947 2.42507 -162.025 27.3825 -7.66358 4.54188e-006 -4.6773e-006 -1.34237 1.59492 -27.4292 1.336 2.93381e-006 1.23006e-006 -0.234881 17.5389 65.3205 -17.5105 -8.13649 25.2327 3.48773 
54.2282 86.4255 10.1232 -2.19385 0.232398 24.8108 -0.480132 -2.8429 0.420596 -0.941635 -1.68781 0.88008 -0.952027 -0.0429274 0.895753 52.1837 -16.1803 24.8481 -54.3978 21.3012 34.4238 77.2688 -4.55368 -3.96358 2.59463 16.3465 104.646 1.87325e-006 3.44318e-006 -2.31487e-006 148.32 71.4628 -130.807 -7.74096e-006 -5.05282e-006 -3 8.03022 -4.95096 0.697554 0.840659 -29.0213 42.1296 -101.185 22.177 -25.8891 -4.13455e-006 -1.24657e-006 6.96602e-006 -3.25132 24.9472 0.576622 5.45497e-006 1.31608e-005 2.99999 -8.03021 -4.95123 -0.697608 158.603 6.5897 15.665 180 7.01511e-015 178.777 173.193 31.9359 -179.14 6.45113e-007 2.87008e-007 0.500314 -19.0713 68.0311 19.5419 7.89644 30.1612 2.50627 -162.086 27.5042 -7.54502 4.54188e-006 -4.6773e-006 -1.33912 1.68242 -27.4498 1.3578 2.93381e-006 1.23006e-006 -0.230475 17.5548 65.3318 -17.5178 -8.13649 25.2327 3.48773 
54.3379 86.4478 10.1781 -2.3096 0.122415 25.3794 -0.513172 -2.85135 0.418685 -1.0076 -1.70567 0.87883 -1.01796 -0.0608036 0.895603 52.0703 -16.4205 24.7076 -54.1083 21.4511 34.1777 77.4239 -4.5812 -3.97844 2.35171 16.7676 104.237 1.87325e-006 3.44318e-006 -2.31487e-006 149.16 71.1928 -131.823 -7.74096e-006 -5.05282e-006 -3 8.03022 -4.95096 0.697554 0.742036 -29.1499 42.2905 -101.074 22.1421 -25.8506 -4.13455e-006 -1.24657e-006 6.96602e-006 -3.3006 24.7823 0.577898 5.45497e-006 1.31608e-005 2.99999 -8.03021 -4.95123 -0.697608 158.825 6.14949 15.4979 180 7.01509e-015 178.77 173.205 31.7544 -179.148 6.45113e-007 2.87007e-007 0.496833 -19.0758 68.0354 19.5466 7.88534 30.2246 2.58368 -162.151 27.6297 -7.42001 4.54188e-006 -4.6773e-006 -1.33555 1.77239 -27.4674 1.38011 2.93381e-006 1.23006e-006 -0.225869 17.5713 65.3441 -17.5257 -8.13649 25.2327 3.48773 
54.4525 86.4606 10.2488 -2.42526 0.014642 25.9556 -0.54379 -2.86015 0.418741 -1.06865 -1.72429 0.881302 -1.07902 -0.0794385 0.899093 51.9025 -16.6883 24.5654 -53.771 21.6145 33.9119 77.5379 -4.63876 -4.00507 2.14024 17.2188 103.779 1.87325e-006 3.44319e-006 -2.31487e-006 149.99 70.9377 -132.852 -7.74096e-006 -5.05282e-006 -3 8.03022 -4.95096 0.697554 0.591651 -29.2869 42.4306 -100.924 22.1191 -25.812 -4.13455e-006 -1.24657e-006 6.96602e-006 -3.35552 24.5906 0.578268 5.45497e-006 1.31608e-005 2.99999 -8.03021 -4.95123 -0.697608 159.048 5.70302 15.334 180 7.01508e-015 178.764 173.211 31.5633 -179.155 6.45113e-007 2.87008e-007 0.493228 -19.0791 68.0382 19.5501 7.87455 30.2845 2.65706 -162.221 27.759 -7.28944 4.54188e-006 -4.6773e-006 -1.33168 1.86438 -27.4824 1.40285 2.93381e-006 1.23006e-006 -0.221098 17.5883 65.3571 -17.5343 -8.13649 25.2327 3.48773 
